# xmcd
#
# Track frame offsets: 
#        150
#        24397
#        40967
#        56802
#        72010
#        88552
#        110907
#        131932
#        151325
#        170122
#        193035
#        216375
#
# Disc length: 3257 seconds
#
# Revision: 7
# Processed by: cddbd v1.5.2PL0 Copyright (c) Steve Scherf et al.
# Submitted via: ExactAudioCopy v0.99pb5
#
DISCID=b50cb70c
DTITLE=Fiona Apple - When The Pawn...
DYEAR=1999
DGENRE=Alternative
TTITLE0=On The Bound
TTITLE1=To Your Love
TTITLE2=Limp
TTITLE3=Love Ridden
TTITLE4=Paper Bug
TTITLE5=A Mistake
TTITLE6=Fast As You Can
TTITLE7=The Way Things Are
TTITLE8=Get Gone
TTITLE9=I Know
TTITLE10=Across The Universe
TTITLE11=Never Is A Promise
EXTD=YEAR: 1999
EXTT0=
EXTT1=
EXTT2=
EXTT3=
EXTT4=
EXTT5=
EXTT6=
EXTT7=
EXTT8=
EXTT9=
EXTT10=
EXTT11=
PLAYORDER=
